# xmcd
#
# Track frame offsets:
#	150
#	63402
#	90686
#	114328
#	142330
#	191552
#	260103
#
# Disc length: 3924 seconds
#
# Revision: 0
# Processed by: cddbd v1.5.2PL0 Copyright (c) Steve Scherf et al.
# Submitted via: dBpowerAMP V4.0
#
DISCID=690f5207
DTITLE=Aki Takase - Tarantella
DYEAR=2006
DGENRE=Blues
TTITLE0=Tarantella
TTITLE1=Walking batterie woman
TTITLE2=Drinking music
TTITLE3=Tripot
TTITLE4=Hat and beard
TTITLE5=Let those who appear
TTITLE6=Song for Che
EXTD=
EXTT0=
EXTT1=
EXTT2=
EXTT3=
EXTT4=
EXTT5=
EXTT6=
PLAYORDER=
